<?xml version="1.0" encoding="UTF-8" standalone="no"?>
<svg width="52px" height="52px" viewBox="0 0 52 52" version="1.1" xmlns="http://www.w3.org/2000/svg" xmlns:xlink="http://www.w3.org/1999/xlink" xmlns:sketch="http://www.bohemiancoding.com/sketch/ns">
    <!-- Generator: Sketch 3.4.4 (17249) - http://www.bohemiancoding.com/sketch -->
    <title>pro-duck-hunt</title>
    <desc>Created with Sketch.</desc>
    <defs></defs>
    <g id="Page-1" stroke="none" stroke-width="1" fill="none" fill-rule="evenodd" sketch:type="MSPage">
        <path d="M52,26 C52,40.3593667 40.3593667,52 26,52 C11.6406333,52 0,40.3593667 0,26 C0,11.6406333 11.6406333,0 26,0 C40.3593667,0 52,11.6406333 52,26 M29.4666667,12.9999133 L29.4666667,13.00013 L16.9,12.9999133 L16.9,38.9999133 L22.1,38.9999133 L22.1,31.20013 L29.4666667,31.20013 L29.4666667,31.1999133 C34.4924667,31.1999133 38.5666667,27.1257133 38.5666667,22.0999133 C38.5666667,17.0741133 34.4924667,12.9999133 29.4666667,12.9999133 Z M29.4666667,25.9999133 L29.4666667,26.00013 L22.1,26.00013 L22.1,18.20013 L29.4666667,18.20013 L29.4666667,18.1999133 C31.62055,18.1999133 33.3666667,19.94603 33.3666667,22.0999133 C33.3666667,24.2537967 31.62055,25.9999133 29.4666667,25.9999133 Z" id="pro-duck-hunt" fill="#DA552F" sketch:type="MSShapeGroup"></path>
    </g>
</svg>